<?xml version="1.0" encoding="utf-8"?>
<!-- Generator: Adobe Illustrator 21.1.0, SVG Export Plug-In . SVG Version: 6.00 Build 0)  -->
<svg version="1.0" id="Layer_1" xmlns="http://www.w3.org/2000/svg" xmlns:xlink="http://www.w3.org/1999/xlink" x="0px" y="0px"
	 viewBox="0 0 50 45" enable-background="new 0 0 50 45" xml:space="preserve">
<path fill="#FFFFFF" d="M44.2,22.2L26.8,10.1v5c0,0-0.1,0-0.1,0c-0.8,0.2-1.5,0.4-2.2,0.6c-1.5,0.4-2.9,0.9-4.4,1.4
	c-1.4,0.5-2.8,1.1-4.2,1.7c-1.4,0.6-2.7,1.3-4.1,2.1c-1.3,0.8-2.6,1.6-3.8,2.5c-1.2,0.9-2.4,1.9-3.4,3.1c-1,1.1-1.9,2.3-2.6,3.6
	c-0.7,1.3-1.2,2.7-1.4,4c0.8-1.2,1.7-2.1,2.8-3c1-0.8,2.2-1.5,3.3-2c1.2-0.5,2.4-0.9,3.6-1.2c1.2-0.3,2.5-0.5,3.8-0.6
	c1.3-0.1,2.5-0.2,3.8-0.2c1.3,0,2.6,0,3.8,0.1c1.3,0.1,2.5,0.2,3.8,0.4c0.4,0.1,0.9,0.1,1.3,0.2v6.3L44.2,22.2z"/>
<path fill="#FFFFFF" d="M27.9,1C17.8,1,9.3,8,7,17.4l1.3,0.4C10.4,9,18.4,2.4,27.9,2.4C39,2.4,48,11.4,48,22.5s-9,20.1-20.1,20.1
	c-7.3,0-13.8-4-17.3-9.8l-1.1,0.8C13.2,39.8,20.1,44,27.9,44c11.9,0,21.5-9.6,21.5-21.5S39.7,1,27.9,1z"/>
</svg>
